<?xml version="1.0" encoding="utf-8"?>
<!-- Generator: Adobe Illustrator 18.0.0, SVG Export Plug-In . SVG Version: 6.00 Build 0)  -->
<!DOCTYPE svg PUBLIC "-//W3C//DTD SVG 1.1//EN" "http://www.w3.org/Graphics/SVG/1.1/DTD/svg11.dtd">
<svg version="1.1" id="Layer_1" xmlns="http://www.w3.org/2000/svg" xmlns:xlink="http://www.w3.org/1999/xlink" x="0px" y="0px"
	 viewBox="179.4 271 237 299.2" enable-background="new 179.4 271 237 299.2" xml:space="preserve">
<title>Artboard 1</title>
<g>
	<path d="M259.5,340.1c-3,0-4.8-0.5-6.7-2.2c-0.1-0.1-0.1-0.4,0-0.5c4.8-6.9,7.1-15.9,7.1-26.5c0-23.3-11.6-39.9-34.7-39.9
		s-34.9,16.6-34.9,39.9s11.7,39.9,34.8,39.9c8.3,0,14.5-1.8,19.9-5.6c0.5-0.4,0.6-0.4,0.9-0.1c3.2,2.8,7.3,4.4,11.6,4.5
		c0.8,0,1.7,0,2.2,0s0.5-0.3,0.6-0.5l0-8.2C260.4,340.3,260.2,340.1,259.5,340.1z M225.2,280.4c15.4,0,23.8,11.5,23.8,30.5
		c0,7.6-1.1,13.6-3.7,18.3c-0.3,0.5-0.5,0.6-0.9,0.2c-5.5-5.5-9.5-9.2-19.8-11.8c-6.5-1.6-13.9-1.5-21.3,0.2
		c-1.2,0.3-1.5-0.8-1.6-1.3c-0.3-1.9-0.5-3.8-0.5-5.7C201.2,291.8,209.8,280.4,225.2,280.4z M204.8,327.1c5.7-1.5,11.7-1.6,17.4-0.1
		c6.8,1.6,11.8,5.4,15.7,9.6c0.4,0.5,0.8,0.9,0.1,1.3c-3.5,2.4-7.8,3.5-12.9,3.5c-10.2,0-17.3-4.5-20.8-13.5
		C204.2,327.4,204.4,327.2,204.8,327.1L204.8,327.1z"/>
	<path d="M319.9,293.9h-9.4c-0.3,0-0.5,0.2-0.5,0.5c0,0,0,0,0,0.1v30.3c0,8.6-5.3,16.6-14.5,16.6c-10.9,0-14.7-8.3-14.7-16.6v-30.3
		c0-0.3-0.2-0.5-0.5-0.5c0,0,0,0-0.1,0h-9.4c-0.3,0-0.5,0.2-0.6,0.5c0,0,0,0,0,0.1v30.3c0,14.3,5.8,26,24,26
		c7.1,0,12.5-3.9,14.4-6.7c0.2-0.3,1-0.6,1.2,0.1l1.1,4.9c0.1,0.3,0.2,0.6,0.6,0.6h8.3c0.3,0,0.5-0.2,0.5-0.5c0,0,0,0,0-0.1v-54.7
		C320.5,294.2,320.2,293.9,319.9,293.9C319.9,293.9,319.9,293.9,319.9,293.9z"/>
	<path d="M388.4,340.3h-2.1c-4.3,0-4.7-2.1-4.7-5.5v-21.6c0-13.4-9.5-20.4-24.7-20.4c-12.5,0-24,6.4-24,19.4c0,0.3,0.2,0.5,0.5,0.6
		c0,0,0,0,0.1,0h9.6c0.3,0,0.5-0.2,0.5-0.5c0,0,0,0,0-0.1c0-5.6,4-10,13.4-10c13.1,0,14.2,6.3,14.2,10.8c0,2.1,0,3.4-3.6,3.4h-12.4
		c-16.2,0-24.2,7.2-24.2,16.8c0,10.5,7.4,17.6,22.1,17.6c10.1,0,16.9-3.6,19.5-6.4c0.2-0.2,0.6-0.2,0.8,0c0.1,0.1,0.1,0.1,0.2,0.2
		c1.7,3.5,5.1,5.2,10.9,5.1h4c0.3,0,0.5-0.2,0.5-0.5c0,0,0,0,0-0.1v-8.3C389,340.6,388.8,340.3,388.4,340.3
		C388.4,340.3,388.4,340.3,388.4,340.3z M371.1,326.8c-0.2,6.7-4.9,14.7-18.2,14.7c-8.8,0-11.6-4.3-11.6-8.3c0-3.9,2-7.9,13.8-8.5
		h15.4c0.3,0,0.5,0.3,0.6,0.6V326.8z"/>
	<path d="M397.7,272.1h11.6c0.3,0,0.6,0.2,0.6,0.6v11.6c0,0.3-0.2,0.6-0.6,0.6h-11.6c-0.3,0-0.6-0.2-0.6-0.6v-11.6
		C397.1,272.3,397.4,272.1,397.7,272.1z"/>
	<path d="M398.8,293.9h9.4c0.3,0,0.6,0.2,0.6,0.6v54.6c0,0.3-0.2,0.6-0.6,0.6h-9.4c-0.3,0-0.6-0.2-0.6-0.6v-54.6
		C398.2,294.2,398.5,293.9,398.8,293.9z"/>
	<path d="M416.4,455.1c0-43.4-34.4-78.6-76.6-78.6s-76.6,35.3-76.6,78.6c0,6.1,0.7,12.2,2.1,18.2c-1.4,6-2.1,12.1-2.1,18.2
		c0,43.4,34.3,78.7,76.6,78.7s76.6-35.3,76.6-78.7c0-6.1-0.7-12.2-2.1-18.2C415.7,467.4,416.4,461.3,416.4,455.1z M339.8,388
		c34.1,0,62.1,27.2,64.8,61.6c-13.6-22.1-37.5-36.8-64.8-36.8s-51.2,14.7-64.8,36.8C277.7,415.2,305.7,388,339.8,388z M402.4,473.3
		c-7.7,28.2-32.8,48.9-62.6,48.9c-29.8,0-54.9-20.7-62.6-48.9c7.7-28.2,32.8-48.9,62.6-48.9C369.6,424.4,394.7,445.1,402.4,473.3z
		 M339.8,558.6c-34.1,0-62.1-27.2-64.8-61.7c13.6,22.1,37.5,36.8,64.8,36.8s51.2-14.7,64.8-36.8
		C401.9,531.4,373.9,558.6,339.8,558.6z"/>
	<path d="M179.4,420.5c0-0.7,0.5-1.3,1.2-1.3c0.1,0,0.1,0,0.2,0h23.8c10.1,0,18.3-8.2,18.3-18.3v-20.2c0-0.7,0.5-1.3,1.2-1.3
		c0.1,0,0.1,0,0.2,0h9.7c0.7,0,1.3,0.5,1.3,1.2c0,0.1,0,0.1,0,0.2v183.8c0,0.7-0.5,1.3-1.2,1.3c-0.1,0-0.1,0-0.2,0h-9.6
		c-0.7,0-1.3-0.5-1.3-1.2c0-0.1,0-0.1,0-0.2V438.9c-0.1-5.1-4.2-9.2-9.3-9.2h-32.8c-0.7,0-1.3-0.5-1.3-1.2c0-0.1,0-0.1,0-0.2V420.5z
		"/>
</g>
</svg>
